<svg width="250" height="48" viewBox="0 0 250 48" fill="none" xmlns="http://www.w3.org/2000/svg">
<rect width="250" height="48" fill="white"/>
<path d="M10.9716 17.5455V11.8182H33.7273V17.5455H25.8523V38H18.8466V17.5455H10.9716ZM36.4023 38V11.8182H47.7035C49.6467 11.8182 51.3469 12.1719 52.8043 12.8793C54.2617 13.5866 55.3952 14.6051 56.2049 15.9347C57.0146 17.2642 57.4194 18.858 57.4194 20.7159C57.4194 22.5909 57.0018 24.1719 56.1665 25.4588C55.3398 26.7457 54.1765 27.7173 52.6765 28.3736C51.185 29.0298 49.4421 29.358 47.4478 29.358H40.6978V23.8352H46.016C46.8512 23.8352 47.5629 23.733 48.1509 23.5284C48.7475 23.3153 49.2035 22.9787 49.5188 22.5185C49.8427 22.0582 50.0046 21.4574 50.0046 20.7159C50.0046 19.9659 49.8427 19.3565 49.5188 18.8878C49.2035 18.4105 48.7475 18.0611 48.1509 17.8395C47.5629 17.6094 46.8512 17.4943 46.016 17.4943H43.5103V38H36.4023ZM51.7433 25.983L58.2887 38H50.5671L44.1751 25.983H51.7433ZM67.2504 38H59.5799L68.2219 11.8182H77.9379L86.5799 38H78.9094L73.1822 19.0284H72.9776L67.2504 38ZM65.8185 27.6705H80.239V32.9886H65.8185V27.6705ZM111.755 11.8182V38H105.823L96.3629 24.2443H96.2095V38H89.1016V11.8182H95.1357L104.442 25.5227H104.647V11.8182H111.755ZM129.231 20C129.163 19.1477 128.843 18.483 128.272 18.0057C127.71 17.5284 126.853 17.2898 125.702 17.2898C124.969 17.2898 124.369 17.3793 123.9 17.5582C123.44 17.7287 123.099 17.9631 122.877 18.2614C122.656 18.5597 122.54 18.9006 122.532 19.2841C122.515 19.5994 122.57 19.8849 122.698 20.1406C122.835 20.3878 123.048 20.6136 123.337 20.8182C123.627 21.0142 123.998 21.1932 124.45 21.3551C124.901 21.517 125.438 21.6619 126.06 21.7898L128.208 22.25C129.657 22.5568 130.897 22.9616 131.928 23.4645C132.96 23.9673 133.803 24.5597 134.46 25.2415C135.116 25.9148 135.597 26.6733 135.904 27.517C136.219 28.3608 136.381 29.2812 136.39 30.2784C136.381 32 135.951 33.4574 135.099 34.6506C134.246 35.8438 133.028 36.7514 131.442 37.3736C129.866 37.9957 127.969 38.3068 125.754 38.3068C123.478 38.3068 121.492 37.9702 119.796 37.2969C118.109 36.6236 116.796 35.5881 115.859 34.1903C114.93 32.7841 114.461 30.9858 114.452 28.7955H121.202C121.245 29.5966 121.445 30.2699 121.803 30.8153C122.161 31.3608 122.664 31.7741 123.312 32.0554C123.968 32.3366 124.748 32.4773 125.651 32.4773C126.41 32.4773 127.045 32.3835 127.556 32.196C128.067 32.0085 128.455 31.7486 128.719 31.4162C128.984 31.0838 129.12 30.7045 129.129 30.2784C129.12 29.8778 128.988 29.5284 128.732 29.2301C128.485 28.9233 128.076 28.6506 127.505 28.4119C126.934 28.1648 126.163 27.9347 125.191 27.7216L122.583 27.1591C120.265 26.6562 118.437 25.8168 117.099 24.6406C115.769 23.456 115.109 21.8409 115.117 19.7955C115.109 18.1335 115.552 16.6804 116.447 15.4361C117.35 14.1832 118.599 13.2074 120.192 12.5085C121.795 11.8097 123.631 11.4602 125.702 11.4602C127.816 11.4602 129.644 11.8139 131.187 12.5213C132.729 13.2287 133.918 14.2259 134.754 15.5128C135.597 16.7912 136.023 18.2869 136.032 20H129.231ZM163.537 21.6364H156.327C156.276 21.0398 156.139 20.4986 155.918 20.0128C155.705 19.527 155.406 19.1094 155.023 18.7599C154.648 18.402 154.192 18.1293 153.655 17.9418C153.118 17.7457 152.509 17.6477 151.827 17.6477C150.634 17.6477 149.624 17.9375 148.797 18.517C147.979 19.0966 147.357 19.9276 146.93 21.0099C146.513 22.0923 146.304 23.392 146.304 24.9091C146.304 26.5114 146.517 27.8537 146.943 28.9361C147.378 30.0099 148.004 30.8196 148.822 31.3651C149.641 31.902 150.625 32.1705 151.776 32.1705C152.432 32.1705 153.02 32.0895 153.54 31.9276C154.06 31.7571 154.511 31.5142 154.895 31.1989C155.278 30.8835 155.589 30.5043 155.828 30.0611C156.075 29.6094 156.241 29.1023 156.327 28.5398L163.537 28.5909C163.452 29.6989 163.141 30.8281 162.604 31.9787C162.067 33.1207 161.304 34.1776 160.315 35.1491C159.335 36.1122 158.121 36.8878 156.672 37.4759C155.223 38.0639 153.54 38.358 151.622 38.358C149.219 38.358 147.062 37.8423 145.153 36.8111C143.253 35.7798 141.749 34.2628 140.641 32.2599C139.541 30.2571 138.991 27.8068 138.991 24.9091C138.991 21.9943 139.554 19.5398 140.679 17.5455C141.804 15.5426 143.321 14.0298 145.23 13.0071C147.139 11.9759 149.27 11.4602 151.622 11.4602C153.276 11.4602 154.797 11.6861 156.186 12.1378C157.575 12.5895 158.794 13.25 159.842 14.1193C160.891 14.9801 161.734 16.0412 162.374 17.3026C163.013 18.5639 163.401 20.0085 163.537 21.6364ZM166.762 38V11.8182H185.631V17.5455H173.87V22.0455H184.659V27.7727H173.87V32.2727H185.58V38H166.762ZM211.81 11.8182V38H205.878L196.418 24.2443H196.264V38H189.156V11.8182H195.19L204.497 25.5227H204.702V11.8182H211.81ZM225.246 38H215.172V11.8182H225.143C227.837 11.8182 230.163 12.3423 232.124 13.3906C234.092 14.4304 235.609 15.9304 236.675 17.8906C237.749 19.8423 238.286 22.1818 238.286 24.9091C238.286 27.6364 237.753 29.9801 236.688 31.9403C235.622 33.892 234.114 35.392 232.162 36.4403C230.21 37.4801 227.905 38 225.246 38ZM222.28 31.9659H224.99C226.286 31.9659 227.389 31.7571 228.301 31.3395C229.222 30.9219 229.92 30.2017 230.398 29.179C230.884 28.1562 231.126 26.733 231.126 24.9091C231.126 23.0852 230.879 21.6619 230.385 20.6392C229.899 19.6165 229.183 18.8963 228.237 18.4787C227.3 18.0611 226.149 17.8523 224.786 17.8523H222.28V31.9659Z" fill="black"/>
</svg>
